<svg width="850" height="600" xmlns="http://www.w3.org/2000/svg">
    <defs>
        <style>
            .title { font: bold 24px sans-serif; }
            .subtitle { font: bold 18px sans-serif; }
            .box { stroke: #666; fill: #fff; stroke-width: 2; }
            .database { fill: #e6fffb; stroke: #13c2c2; }
            .process { fill: #f0f5ff; stroke: #1890ff; }
            .external { fill: #f9f0ff; stroke: #722ed1; }
            .user { fill: #fff7e6; stroke: #fa8c16; }
            .data { fill: #fcffe6; stroke: #a0d911; }
            .arrow { stroke: #666; stroke-width: 2; fill: none; marker-end: url(#arrowhead); }
            .dashed { stroke-dasharray: 5,5; }
            .label { font: 12px sans-serif; }
            .component-title { font: bold 14px sans-serif; }
            .description { font: 11px sans-serif; fill: #555; }
            .data-label { font: bold 12px sans-serif; fill: #13c2c2; }
        </style>
        <marker id="arrowhead" markerWidth="10" markerHeight="7" refX="9" refY="3.5" orient="auto">
            <polygon points="0 0, 10 3.5, 0 7" fill="#666" />
        </marker>
    </defs>
    
    <!-- Title -->
    <text x="425" y="30" class="title" text-anchor="middle">Open WebUI 数据流图</text>
    
    <!-- User -->
    <rect x="370" y="60" width="110" height="50" rx="10" class="user" />
    <text x="425" y="90" class="component-title" text-anchor="middle">用户</text>
    
    <!-- Frontend -->
    <rect x="320" y="150" width="210" height="60" rx="10" class="process" />
    <text x="425" y="175" class="component-title" text-anchor="middle">前端 (Svelte)</text>
    <text x="425" y="195" class="description" text-anchor="middle">用户界面与交互逻辑</text>
    
    <!-- API Layer -->
    <rect x="320" y="250" width="210" height="60" rx="10" class="process" />
    <text x="425" y="275" class="component-title" text-anchor="middle">API 层 (FastAPI)</text>
    <text x="425" y="295" class="description" text-anchor="middle">路由与请求处理</text>
    
    <!-- Core Logic -->
    <rect x="320" y="350" width="210" height="60" rx="10" class="process" />
    <text x="425" y="375" class="component-title" text-anchor="middle">核心逻辑</text>
    <text x="425" y="395" class="description" text-anchor="middle">业务处理与模型集成</text>
    
    <!-- Storage -->
    <rect x="100" y="340" width="180" height="180" rx="10" class="database" />
    <text x="190" y="365" class="component-title" text-anchor="middle">持久化存储</text>
    
    <rect x="120" y="385" width="140" height="30" rx="5" class="box" />
    <text x="190" y="405" class="description" text-anchor="middle">会话 (sessions.py)</text>
    
    <rect x="120" y="425" width="140" height="30" rx="5" class="box" />
    <text x="190" y="445" class="description" text-anchor="middle">模型配置 (models.py)</text>
    
    <rect x="120" y="465" width="140" height="30" rx="5" class="box" />
    <text x="190" y="485" class="description" text-anchor="middle">用户数据 (users.py)</text>
    
    <!-- External Services -->
    <rect x="570" y="340" width="180" height="180" rx="10" class="external" />
    <text x="660" y="365" class="component-title" text-anchor="middle">外部服务</text>
    
    <rect x="590" y="385" width="140" height="30" rx="5" class="box" />
    <text x="660" y="405" class="description" text-anchor="middle">Ollama</text>
    
    <rect x="590" y="425" width="140" height="30" rx="5" class="box" />
    <text x="660" y="445" class="description" text-anchor="middle">OpenAI 兼容 API</text>
    
    <rect x="590" y="465" width="140" height="30" rx="5" class="box" />
    <text x="660" y="485" class="description" text-anchor="middle">其他 LLM 服务</text>
    
    <!-- File System -->
    <rect x="320" y="460" width="210" height="60" rx="10" class="database" />
    <text x="425" y="485" class="component-title" text-anchor="middle">文件系统</text>
    <text x="425" y="505" class="description" text-anchor="middle">文档、索引与本地缓存</text>
    
    <!-- Connections -->
    <!-- User to Frontend -->
    <path d="M425 110 L425 150" class="arrow" />
    <text x="440" y="130" class="data-label">用户交互</text>
    
    <!-- Frontend to API -->
    <path d="M425 210 L425 250" class="arrow" />
    <text x="440" y="230" class="data-label">API 请求</text>
    
    <!-- API to Core -->
    <path d="M425 310 L425 350" class="arrow" />
    <text x="440" y="330" class="data-label">处理请求</text>
    
    <!-- Core to Storage -->
    <path d="M320 380 L280 380" class="arrow" />
    <text x="290" y="365" class="data-label">读写数据</text>
    
    <!-- Core to External -->
    <path d="M530 380 L570 380" class="arrow" />
    <text x="540" y="365" class="data-label">模型请求</text>
    
    <!-- External to Core -->
    <path d="M570 400 L530 400" class="arrow" />
    <text x="540" y="415" class="data-label">模型响应</text>
    
    <!-- Core to Files -->
    <path d="M425 410 L425 460" class="arrow" />
    <text x="440" y="435" class="data-label">文件操作</text>
    
    <!-- Data Flows -->
    <rect x="150" y="550" width="550" height="30" rx="5" class="data" />
    <text x="175" y="570" class="description">聊天数据</text>
    <text x="275" y="570" class="description">用户设置</text>
    <text x="375" y="570" class="description">模型配置</text>
    <text x="475" y="570" class="description">检索数据</text>
    <text x="575" y="570" class="description">文件内容</text>
    <text x="675" y="570" class="description">系统状态</text>
</svg> 