<svg width="850" height="600" xmlns="http://www.w3.org/2000/svg">
    <defs>
        <style>
            .title { font: bold 24px sans-serif; }
            .subtitle { font: italic 14px sans-serif; fill: #666; }
            .table { fill: #fff; stroke: #333; stroke-width: 2; }
            .table-header { fill: #f6ffed; stroke: #52c41a; }
            .table-user { fill: #e6f7ff; stroke: #1890ff; }
            .table-chat { fill: #fff7e6; stroke: #fa8c16; }
            .table-message { fill: #f9f0ff; stroke: #722ed1; }
            .table-model { fill: #fff1f0; stroke: #ff4d4f; }
            .table-file { fill: #e6fffb; stroke: #13c2c2; }
            .table-name { font: bold 16px sans-serif; }
            .column-name { font: bold 12px sans-serif; }
            .column-type { font: 11px monospace; fill: #666; }
            .pk { fill: #fa8c16; font-weight: bold; }
            .fk { fill: #1890ff; }
            .arrow { stroke: #666; stroke-width: 1.5; fill: none; marker-end: url(#arrowhead); }
            .relation { font: 11px sans-serif; fill: #666; }
            .dashed { stroke-dasharray: 5,5; }
        </style>
        <marker id="arrowhead" markerWidth="10" markerHeight="7" refX="9" refY="3.5" orient="auto">
            <polygon points="0 0, 10 3.5, 0 7" fill="#666" />
        </marker>
    </defs>
    
    <!-- Title -->
    <text x="425" y="30" class="title" text-anchor="middle">Open WebUI 数据模型</text>
    <text x="425" y="55" class="subtitle" text-anchor="middle">核心实体关系模型</text>
    
    <!-- User Table -->
    <rect x="50" y="80" width="180" height="170" rx="5" class="table table-user" />
    <rect x="50" y="80" width="180" height="30" rx="5" class="table-header" />
    <text x="140" y="100" class="table-name" text-anchor="middle">User</text>
    
    <text x="65" y="130" class="column-name">id</text>
    <text x="160" y="130" class="column-type" text-anchor="middle">INTEGER</text>
    <text x="225" y="130" class="pk" text-anchor="end">PK</text>
    
    <text x="65" y="150" class="column-name">username</text>
    <text x="160" y="150" class="column-type" text-anchor="middle">VARCHAR(255)</text>
    
    <text x="65" y="170" class="column-name">email</text>
    <text x="160" y="170" class="column-type" text-anchor="middle">VARCHAR(255)</text>
    
    <text x="65" y="190" class="column-name">password_hash</text>
    <text x="160" y="190" class="column-type" text-anchor="middle">VARCHAR(255)</text>
    
    <text x="65" y="210" class="column-name">role</text>
    <text x="160" y="210" class="column-type" text-anchor="middle">VARCHAR(50)</text>
    
    <text x="65" y="230" class="column-name">created_at</text>
    <text x="160" y="230" class="column-type" text-anchor="middle">TIMESTAMP</text>
    
    <!-- Chat Table -->
    <rect x="330" y="80" width="180" height="150" rx="5" class="table table-chat" />
    <rect x="330" y="80" width="180" height="30" rx="5" class="table-header" />
    <text x="420" y="100" class="table-name" text-anchor="middle">Chat</text>
    
    <text x="345" y="130" class="column-name">id</text>
    <text x="440" y="130" class="column-type" text-anchor="middle">INTEGER</text>
    <text x="505" y="130" class="pk" text-anchor="end">PK</text>
    
    <text x="345" y="150" class="column-name">user_id</text>
    <text x="440" y="150" class="column-type" text-anchor="middle">INTEGER</text>
    <text x="505" y="150" class="fk" text-anchor="end">FK</text>
    
    <text x="345" y="170" class="column-name">title</text>
    <text x="440" y="170" class="column-type" text-anchor="middle">VARCHAR(255)</text>
    
    <text x="345" y="190" class="column-name">created_at</text>
    <text x="440" y="190" class="column-type" text-anchor="middle">TIMESTAMP</text>
    
    <text x="345" y="210" class="column-name">updated_at</text>
    <text x="440" y="210" class="column-type" text-anchor="middle">TIMESTAMP</text>
    
    <!-- Message Table -->
    <rect x="610" y="80" width="190" height="190" rx="5" class="table table-message" />
    <rect x="610" y="80" width="190" height="30" rx="5" class="table-header" />
    <text x="705" y="100" class="table-name" text-anchor="middle">Message</text>
    
    <text x="625" y="130" class="column-name">id</text>
    <text x="725" y="130" class="column-type" text-anchor="middle">INTEGER</text>
    <text x="795" y="130" class="pk" text-anchor="end">PK</text>
    
    <text x="625" y="150" class="column-name">chat_id</text>
    <text x="725" y="150" class="column-type" text-anchor="middle">INTEGER</text>
    <text x="795" y="150" class="fk" text-anchor="end">FK</text>
    
    <text x="625" y="170" class="column-name">role</text>
    <text x="725" y="170" class="column-type" text-anchor="middle">VARCHAR(50)</text>
    
    <text x="625" y="190" class="column-name">content</text>
    <text x="725" y="190" class="column-type" text-anchor="middle">TEXT</text>
    
    <text x="625" y="210" class="column-name">created_at</text>
    <text x="725" y="210" class="column-type" text-anchor="middle">TIMESTAMP</text>
    
    <text x="625" y="230" class="column-name">model</text>
    <text x="725" y="230" class="column-type" text-anchor="middle">VARCHAR(100)</text>
    
    <text x="625" y="250" class="column-name">reference_id</text>
    <text x="725" y="250" class="column-type" text-anchor="middle">INTEGER</text>
    
    <!-- Model Table -->
    <rect x="330" y="300" width="180" height="150" rx="5" class="table table-model" />
    <rect x="330" y="300" width="180" height="30" rx="5" class="table-header" />
    <text x="420" y="320" class="table-name" text-anchor="middle">Model</text>
    
    <text x="345" y="350" class="column-name">id</text>
    <text x="440" y="350" class="column-type" text-anchor="middle">INTEGER</text>
    <text x="505" y="350" class="pk" text-anchor="end">PK</text>
    
    <text x="345" y="370" class="column-name">name</text>
    <text x="440" y="370" class="column-type" text-anchor="middle">VARCHAR(255)</text>
    
    <text x="345" y="390" class="column-name">type</text>
    <text x="440" y="390" class="column-type" text-anchor="middle">VARCHAR(50)</text>
    
    <text x="345" y="410" class="column-name">params</text>
    <text x="440" y="410" class="column-type" text-anchor="middle">JSON</text>
    
    <text x="345" y="430" class="column-name">created_at</text>
    <text x="440" y="430" class="column-type" text-anchor="middle">TIMESTAMP</text>
    
    <!-- File Table -->
    <rect x="50" y="300" width="180" height="170" rx="5" class="table table-file" />
    <rect x="50" y="300" width="180" height="30" rx="5" class="table-header" />
    <text x="140" y="320" class="table-name" text-anchor="middle">File</text>
    
    <text x="65" y="350" class="column-name">id</text>
    <text x="160" y="350" class="column-type" text-anchor="middle">INTEGER</text>
    <text x="225" y="350" class="pk" text-anchor="end">PK</text>
    
    <text x="65" y="370" class="column-name">user_id</text>
    <text x="160" y="370" class="column-type" text-anchor="middle">INTEGER</text>
    <text x="225" y="370" class="fk" text-anchor="end">FK</text>
    
    <text x="65" y="390" class="column-name">name</text>
    <text x="160" y="390" class="column-type" text-anchor="middle">VARCHAR(255)</text>
    
    <text x="65" y="410" class="column-name">path</text>
    <text x="160" y="410" class="column-type" text-anchor="middle">VARCHAR(1024)</text>
    
    <text x="65" y="430" class="column-name">size</text>
    <text x="160" y="430" class="column-type" text-anchor="middle">INTEGER</text>
    
    <text x="65" y="450" class="column-name">created_at</text>
    <text x="160" y="450" class="column-type" text-anchor="middle">TIMESTAMP</text>
    
    <!-- Retrieval Table -->
    <rect x="610" y="300" width="190" height="170" rx="5" class="table table-file" />
    <rect x="610" y="300" width="190" height="30" rx="5" class="table-header" />
    <text x="705" y="320" class="table-name" text-anchor="middle">Retrieval</text>
    
    <text x="625" y="350" class="column-name">id</text>
    <text x="720" y="350" class="column-type" text-anchor="middle">INTEGER</text>
    <text x="795" y="350" class="pk" text-anchor="end">PK</text>
    
    <text x="625" y="370" class="column-name">user_id</text>
    <text x="720" y="370" class="column-type" text-anchor="middle">INTEGER</text>
    <text x="795" y="370" class="fk" text-anchor="end">FK</text>
    
    <text x="625" y="390" class="column-name">file_id</text>
    <text x="720" y="390" class="column-type" text-anchor="middle">INTEGER</text>
    <text x="795" y="390" class="fk" text-anchor="end">FK</text>
    
    <text x="625" y="410" class="column-name">chunk_id</text>
    <text x="720" y="410" class="column-type" text-anchor="middle">VARCHAR(255)</text>
    
    <text x="625" y="430" class="column-name">content</text>
    <text x="720" y="430" class="column-type" text-anchor="middle">TEXT</text>
    
    <text x="625" y="450" class="column-name">embedding</text>
    <text x="720" y="450" class="column-type" text-anchor="middle">VECTOR</text>
    
    <!-- Relationships -->
    <!-- User to Chat -->
    <path d="M 230 150 L 330 150" class="arrow" />
    <text x="280" y="140" class="relation" text-anchor="middle">1:N</text>
    
    <!-- Chat to Message -->
    <path d="M 510 150 L 610 150" class="arrow" />
    <text x="560" y="140" class="relation" text-anchor="middle">1:N</text>
    
    <!-- User to File -->
    <path d="M 140 250 L 140 300" class="arrow" />
    <text x="150" y="275" class="relation" text-anchor="middle">1:N</text>
    
    <!-- File to Retrieval -->
    <path d="M 230 410 L 610 390" class="arrow" />
    <text x="420" y="390" class="relation" text-anchor="middle">1:N</text>
    
    <!-- User to Retrieval -->
    <path d="M 210 240 C 270 240, 560 280, 610 370" class="arrow" />
    <text x="350" y="270" class="relation" text-anchor="middle">1:N</text>
    
    <!-- Message to Model (Dashed, not directly linked but referenced) -->
    <path d="M 705 270 L 705 290 L 420 290 L 420 300" class="arrow dashed" />
    <text x="560" y="290" class="relation" text-anchor="middle">引用</text>
    
    <!-- Database Metadata -->
    <rect x="330" y="490" width="190" height="80" rx="5" class="table" fill="#f8f8f8" />
    <text x="425" y="515" class="table-name" text-anchor="middle" font-size="14px">数据库元信息</text>
    <line x1="330" y1="525" x2="520" y2="525" stroke="#333" stroke-width="1" />
    <text x="425" y="540" font-size="12px" text-anchor="middle">SQLite (本地开发)</text>
    <text x="425" y="560" font-size="12px" text-anchor="middle">PostgreSQL (生产环境)</text>
</svg> 