<svg width="800" height="600" xmlns="http://www.w3.org/2000/svg">
    <defs>
        <style>
            .title { font: bold 24px sans-serif; }
            .subtitle { font: italic 14px sans-serif; fill: #666; }
            .box { stroke: #666; fill: #fff; stroke-width: 2; }
            .user { fill: #e6f7ff; stroke: #1890ff; }
            .ai { fill: #fff7e6; stroke: #fa8c16; }
            .system { fill: #f6ffed; stroke: #52c41a; }
            .integration { fill: #f9f0ff; stroke: #722ed1; }
            .vision { fill: #fff1f0; stroke: #ff4d4f; }
            .idea { fill: #fff; stroke: #d9d9d9; }
            .arrow { stroke: #666; stroke-width: 1.5; fill: none; marker-end: url(#arrowhead); }
            .dashed { stroke-dasharray: 5,5; }
            .section-title { font: bold 16px sans-serif; }
            .idea-title { font: bold 14px sans-serif; }
            .idea-desc { font: 12px sans-serif; fill: #555; }
            .light-bulb { fill: #fffbe6; stroke: #faad14; }
        </style>
        <marker id="arrowhead" markerWidth="10" markerHeight="7" refX="9" refY="3.5" orient="auto">
            <polygon points="0 0, 10 3.5, 0 7" fill="#666" />
        </marker>
    </defs>
    
    <!-- Title -->
    <text x="400" y="30" class="title" text-anchor="middle">Open WebUI 创新想法</text>
    <text x="400" y="55" class="subtitle" text-anchor="middle">未来发展与创新方向</text>
    
    <!-- Central Vision -->
    <rect x="300" y="80" width="200" height="80" rx="40" class="box vision" />
    <text x="400" y="120" class="section-title" text-anchor="middle">开放AI前端生态系统</text>
    
    <!-- User Experience -->
    <rect x="50" y="200" width="320" height="160" rx="10" class="box user" />
    <text x="210" y="225" class="section-title" text-anchor="middle">用户体验创新</text>
    
    <rect x="70" y="245" width="130" height="100" rx="5" class="box idea" />
    <circle cx="85" cy="260" r="10" class="light-bulb" />
    <text x="135" y="265" class="idea-title" text-anchor="middle">多模态交互</text>
    <text x="135" y="285" class="idea-desc" text-anchor="middle">语音识别与合成</text>
    <text x="135" y="300" class="idea-desc" text-anchor="middle">图像生成与分析</text>
    <text x="135" y="315" class="idea-desc" text-anchor="middle">视频处理集成</text>
    
    <rect x="220" y="245" width="130" height="100" rx="5" class="box idea" />
    <circle cx="235" cy="260" r="10" class="light-bulb" />
    <text x="285" y="265" class="idea-title" text-anchor="middle">个性化界面</text>
    <text x="285" y="285" class="idea-desc" text-anchor="middle">AI辅助UI定制</text>
    <text x="285" y="300" class="idea-desc" text-anchor="middle">学习用户偏好</text>
    <text x="285" y="315" class="idea-desc" text-anchor="middle">场景化模板</text>
    
    <!-- AI Capabilities -->
    <rect x="430" y="200" width="320" height="160" rx="10" class="box ai" />
    <text x="590" y="225" class="section-title" text-anchor="middle">AI能力增强</text>
    
    <rect x="450" y="245" width="130" height="100" rx="5" class="box idea" />
    <circle cx="465" cy="260" r="10" class="light-bulb" />
    <text x="515" y="265" class="idea-title" text-anchor="middle">多智能体协作</text>
    <text x="515" y="285" class="idea-desc" text-anchor="middle">角色化AI团队</text>
    <text x="515" y="300" class="idea-desc" text-anchor="middle">任务分解与协作</text>
    <text x="515" y="315" class="idea-desc" text-anchor="middle">意见博弈与综合</text>
    
    <rect x="600" y="245" width="130" height="100" rx="5" class="box idea" />
    <circle cx="615" cy="260" r="10" class="light-bulb" />
    <text x="665" y="265" class="idea-title" text-anchor="middle">持续学习</text>
    <text x="665" y="285" class="idea-desc" text-anchor="middle">基于反馈微调</text>
    <text x="665" y="300" class="idea-desc" text-anchor="middle">知识库动态更新</text>
    <text x="665" y="315" class="idea-desc" text-anchor="middle">跨会话记忆</text>
    
    <!-- System Architecture -->
    <rect x="50" y="380" width="320" height="160" rx="10" class="box system" />
    <text x="210" y="405" class="section-title" text-anchor="middle">系统架构创新</text>
    
    <rect x="70" y="425" width="130" height="100" rx="5" class="box idea" />
    <circle cx="85" cy="440" r="10" class="light-bulb" />
    <text x="135" y="445" class="idea-title" text-anchor="middle">边缘计算</text>
    <text x="135" y="465" class="idea-desc" text-anchor="middle">本地AI处理</text>
    <text x="135" y="480" class="idea-desc" text-anchor="middle">分布式推理</text>
    <text x="135" y="495" class="idea-desc" text-anchor="middle">低延迟交互</text>
    
    <rect x="220" y="425" width="130" height="100" rx="5" class="box idea" />
    <circle cx="235" cy="440" r="10" class="light-bulb" />
    <text x="285" y="445" class="idea-title" text-anchor="middle">隐私与安全</text>
    <text x="285" y="465" class="idea-desc" text-anchor="middle">零知识证明</text>
    <text x="285" y="480" class="idea-desc" text-anchor="middle">联邦学习支持</text>
    <text x="285" y="495" class="idea-desc" text-anchor="middle">隐私计算</text>
    
    <!-- Integrations -->
    <rect x="430" y="380" width="320" height="160" rx="10" class="box integration" />
    <text x="590" y="405" class="section-title" text-anchor="middle">集成与互操作</text>
    
    <rect x="450" y="425" width="130" height="100" rx="5" class="box idea" />
    <circle cx="465" cy="440" r="10" class="light-bulb" />
    <text x="515" y="445" class="idea-title" text-anchor="middle">跨平台互通</text>
    <text x="515" y="465" class="idea-desc" text-anchor="middle">通用AI协议</text>
    <text x="515" y="480" class="idea-desc" text-anchor="middle">数据互操作</text>
    <text x="515" y="495" class="idea-desc" text-anchor="middle">会话同步</text>
    
    <rect x="600" y="425" width="130" height="100" rx="5" class="box idea" />
    <circle cx="615" cy="440" r="10" class="light-bulb" />
    <text x="665" y="445" class="idea-title" text-anchor="middle">生态系统</text>
    <text x="665" y="465" class="idea-desc" text-anchor="middle">插件市场</text>
    <text x="665" y="480" class="idea-desc" text-anchor="middle">模型交换</text>
    <text x="665" y="495" class="idea-desc" text-anchor="middle">开发者API</text>
    
    <!-- Future Vision -->
    <rect x="50" y="560" width="700" height="30" rx="15" class="box vision" />
    <text x="400" y="580" class="section-title" text-anchor="middle">打造真正开放、可扩展、普惠的AI交互平台</text>
    
    <!-- Connecting Lines -->
    <line x1="400" y1="160" x2="400" y2="200" class="arrow dashed" />
    <path d="M 400 160 L 300 160 L 210 200" class="arrow dashed" />
    <path d="M 400 160 L 500 160 L 590 200" class="arrow dashed" />
    
    <line x1="210" y1="360" x2="210" y2="380" class="arrow" />
    <line x1="590" y1="360" x2="590" y2="380" class="arrow" />
    
    <path d="M 210 540 L 210 560" class="arrow" />
    <path d="M 590 540 L 590 560" class="arrow" />
</svg> 